<svg xmlns="http://www.w3.org/2000/svg" xmlns:xlink="http://www.w3.org/1999/xlink" width="2379" zoomAndPan="magnify" viewBox="0 0 1784.88 1784.99993" height="2379" preserveAspectRatio="xMidYMid meet" version="1.0"><defs><clipPath id="d955cfeee1"><path d="M 837 1242 L 882 1242 L 882 1661.980469 L 837 1661.980469 Z M 837 1242 " clip-rule="nonzero"/></clipPath></defs><path fill="#393536" d="M 1653.804688 1041.703125 C 1645.898438 1052.507812 1630.703125 1054.820312 1619.929688 1046.914062 C 1609.144531 1039.023438 1606.796875 1023.832031 1614.703125 1013.078125 C 1622.613281 1002.277344 1637.789062 999.929688 1648.5625 1007.855469 C 1645.882812 1005.859375 1643.21875 1003.902344 1648.5625 1007.855469 C 1650.523438 1009.261719 1651.410156 1009.914062 1651.609375 1010.082031 C 1651.257812 1009.8125 1649.933594 1008.84375 1648.59375 1007.871094 C 1659.367188 1015.777344 1661.695312 1030.953125 1653.804688 1041.703125 Z M 1601.019531 827.632812 C 1614.402344 827.597656 1625.257812 838.46875 1625.277344 851.832031 C 1625.292969 865.199219 1614.417969 876.054688 1601.050781 876.054688 C 1587.683594 876.085938 1576.828125 865.25 1576.828125 851.832031 C 1576.777344 838.519531 1587.648438 827.632812 1601.019531 827.632812 Z M 1652.96875 1001.839844 C 1641.105469 993.164062 1625.175781 993.984375 1614.285156 1002.863281 L 1566.824219 968.746094 L 1323.441406 968.863281 L 1385.796875 859.421875 L 1570.292969 859.320312 C 1573.660156 873.171875 1586.15625 883.507812 1601.050781 883.472656 C 1618.523438 883.507812 1632.730469 869.285156 1632.730469 851.832031 C 1632.695312 834.363281 1618.492188 820.175781 1601.019531 820.195312 C 1586.125 820.226562 1573.628906 830.578125 1570.277344 844.429688 L 1377.117188 844.546875 L 1306.304688 968.910156 L 1167.023438 969.011719 L 1167.023438 991.707031 L 1295.113281 1080.664062 L 1428.316406 1080.578125 C 1431.597656 1092.40625 1442.402344 1101.082031 1455.269531 1101.082031 C 1470.699219 1101.082031 1483.214844 1088.535156 1483.195312 1073.09375 C 1483.179688 1057.667969 1470.664062 1045.15625 1455.234375 1045.171875 C 1442.386719 1045.1875 1431.566406 1053.863281 1428.316406 1065.707031 L 1299.769531 1065.789062 L 1181.78125 983.867188 L 1561.96875 983.585938 L 1605.289062 1014.6875 C 1599.460938 1027.988281 1603.347656 1043.980469 1615.527344 1052.941406 C 1629.632812 1063.242188 1649.449219 1060.164062 1659.785156 1046.109375 C 1670.105469 1032.039062 1667.074219 1012.160156 1652.96875 1001.839844 " fill-opacity="1" fill-rule="nonzero"/><path fill="#393536" d="M 123.449219 1007.871094 C 122.109375 1008.84375 120.785156 1009.8125 120.449219 1010.082031 C 120.652344 1009.914062 121.539062 1009.261719 123.484375 1007.855469 C 128.828125 1003.902344 126.164062 1005.859375 123.484375 1007.855469 C 134.269531 999.929688 149.449219 1002.277344 157.355469 1013.078125 C 165.246094 1023.832031 162.917969 1039.023438 152.128906 1046.914062 C 141.359375 1054.820312 126.144531 1052.507812 118.253906 1041.703125 C 110.347656 1030.953125 112.695312 1015.777344 123.449219 1007.871094 Z M 195.234375 851.832031 C 195.234375 865.25 184.363281 876.085938 170.992188 876.054688 C 157.625 876.054688 146.769531 865.199219 146.785156 851.832031 C 146.785156 838.46875 157.65625 827.597656 171.042969 827.632812 C 184.410156 827.632812 195.25 838.519531 195.234375 851.832031 Z M 112.257812 1046.109375 C 122.59375 1060.164062 142.429688 1063.242188 156.503906 1052.941406 C 168.714844 1043.980469 172.601562 1027.988281 166.769531 1014.6875 L 210.09375 983.585938 L 590.261719 983.867188 L 472.289062 1065.789062 L 343.746094 1065.707031 C 340.496094 1053.863281 329.675781 1045.1875 316.824219 1045.171875 C 301.394531 1045.15625 288.863281 1057.667969 288.863281 1073.09375 C 288.847656 1088.535156 301.363281 1101.082031 316.773438 1101.082031 C 329.640625 1101.082031 340.445312 1092.40625 343.746094 1080.578125 L 476.929688 1080.664062 L 605.019531 991.707031 L 605.019531 969.011719 L 465.757812 968.910156 L 394.925781 844.546875 L 201.769531 844.429688 C 198.433594 830.578125 185.9375 820.226562 171.042969 820.195312 C 153.554688 820.175781 139.363281 834.363281 139.332031 851.832031 C 139.332031 869.285156 153.519531 883.507812 170.992188 883.472656 C 185.886719 883.507812 198.382812 873.171875 201.75 859.320312 L 386.265625 859.421875 L 448.601562 968.863281 L 205.234375 968.746094 L 157.773438 1002.863281 C 146.871094 993.984375 130.9375 993.164062 119.078125 1001.839844 C 104.988281 1012.160156 101.957031 1032.039062 112.257812 1046.109375 " fill-opacity="1" fill-rule="nonzero"/><path fill="#393536" d="M 920.023438 1576.980469 L 918.714844 1247.453125 C 914.8125 1247.488281 910.890625 1247.453125 906.972656 1247.335938 L 908.3125 1577.113281 C 899.0625 1579.777344 892.296875 1588.371094 892.398438 1598.503906 C 892.5625 1610.644531 902.515625 1620.378906 914.695312 1620.242188 C 926.824219 1620.109375 936.589844 1610.125 936.457031 1597.96875 C 936.320312 1587.851562 929.351562 1579.441406 920.023438 1576.980469 " fill-opacity="1" fill-rule="nonzero"/><path fill="#393536" d="M 1058.367188 1341.183594 C 1051.160156 1334.0625 1040.324219 1332.910156 1031.894531 1337.683594 L 1016.886719 1322.742188 L 1018.277344 1219.03125 C 1014.640625 1222.277344 1010.71875 1225.175781 1006.480469 1227.789062 L 1005.226562 1327.664062 L 1023.671875 1346.007812 C 1018.929688 1354.429688 1020.117188 1365.285156 1027.304688 1372.421875 C 1035.933594 1380.996094 1049.886719 1380.945312 1058.433594 1372.351562 C 1067.027344 1363.710938 1066.992188 1349.742188 1058.367188 1341.183594 " fill-opacity="1" fill-rule="nonzero"/><path fill="#393536" d="M 965.171875 1500.152344 C 954.632812 1500.285156 945.953125 1491.808594 945.835938 1481.289062 C 945.71875 1470.789062 954.179688 1462.113281 964.699219 1461.980469 C 975.238281 1461.863281 983.882812 1470.320312 984.015625 1480.855469 C 984.132812 1491.390625 975.707031 1500.050781 965.171875 1500.152344 Z M 970.53125 1456.769531 L 970.429688 1241.976562 C 966.609375 1242.878906 962.707031 1243.652344 958.738281 1244.320312 L 958.804688 1456.9375 C 947.882812 1459.699219 939.855469 1469.632812 939.992188 1481.375 C 940.140625 1495.109375 951.484375 1506.179688 965.21875 1505.996094 C 978.992188 1505.863281 990.046875 1494.523438 989.898438 1480.773438 C 989.730469 1469.046875 981.46875 1459.300781 970.53125 1456.769531 " fill-opacity="1" fill-rule="nonzero"/><g clip-path="url(#d955cfeee1)"><path fill="#393536" d="M 864.839844 1618.851562 L 862.980469 1244.019531 C 859.058594 1243.566406 855.15625 1243.066406 851.285156 1242.527344 L 853.113281 1618.96875 C 843.832031 1621.667969 837.078125 1630.242188 837.195312 1640.394531 C 837.3125 1652.554688 847.296875 1662.285156 859.496094 1662.152344 C 871.640625 1662 881.390625 1652.015625 881.257812 1639.855469 C 881.15625 1629.722656 874.1875 1621.316406 864.839844 1618.851562 " fill-opacity="1" fill-rule="nonzero"/></g><path fill="#393536" d="M 762.949219 1226.148438 C 758.859375 1225.261719 754.972656 1224.421875 751.289062 1223.617188 L 750.132812 1349.792969 L 735.457031 1365.101562 C 726.945312 1360.476562 716.125 1361.902344 709.105469 1369.203125 C 700.679688 1377.996094 700.980469 1391.933594 709.757812 1400.359375 C 718.503906 1408.734375 732.457031 1408.464844 740.867188 1399.6875 C 747.886719 1392.386719 748.808594 1381.480469 743.917969 1373.207031 L 761.875 1354.449219 L 762.949219 1226.148438 " fill-opacity="1" fill-rule="nonzero"/><path fill="#393536" d="M 806.621094 1578.855469 C 796.085938 1578.972656 787.425781 1570.515625 787.324219 1560.011719 C 787.191406 1549.460938 795.632812 1540.800781 806.171875 1540.683594 C 816.707031 1540.550781 825.351562 1549.023438 825.488281 1559.511719 C 825.605469 1570.046875 817.144531 1578.738281 806.621094 1578.855469 Z M 811.949219 1535.476562 L 811.0625 1235.980469 C 807.074219 1235.261719 803.15625 1234.488281 799.320312 1233.734375 L 800.273438 1535.609375 C 789.351562 1538.371094 781.308594 1548.320312 781.460938 1560.046875 C 781.609375 1573.796875 792.953125 1584.867188 806.691406 1584.71875 C 820.425781 1584.550781 831.515625 1573.226562 831.332031 1559.492188 C 831.199219 1547.734375 822.941406 1538.019531 811.949219 1535.476562 " fill-opacity="1" fill-rule="nonzero"/><path fill="#393536" d="M 300.171875 702.414062 L 611.636719 861.429688 C 613.5 857.761719 615.425781 854.09375 617.433594 850.445312 L 305.75 691.308594 C 307.746094 681.257812 302.921875 670.722656 293.320312 665.898438 C 281.796875 660.121094 267.773438 664.792969 261.976562 676.335938 C 256.195312 687.839844 260.855469 701.894531 272.398438 707.671875 C 281.996094 712.480469 293.320312 710.015625 300.171875 702.414062 " fill-opacity="1" fill-rule="nonzero"/><path fill="#393536" d="M 350.683594 782.308594 C 355.691406 772.339844 367.871094 768.269531 377.871094 773.296875 C 387.824219 778.269531 391.910156 790.480469 386.902344 800.464844 C 381.890625 810.460938 369.714844 814.484375 359.730469 809.492188 C 349.710938 804.464844 345.65625 792.304688 350.683594 782.308594 Z M 388.980469 808.46875 L 591.585938 912.886719 C 592.625 908.832031 593.796875 904.796875 595.105469 900.707031 L 394.523438 797.363281 C 397.238281 785.722656 391.761719 773.328125 380.636719 767.734375 C 367.601562 761.1875 351.652344 766.496094 345.121094 779.542969 C 338.585938 792.589844 343.863281 808.535156 356.929688 815.085938 C 368.089844 820.613281 381.289062 817.582031 388.980469 808.46875 " fill-opacity="1" fill-rule="nonzero"/><path fill="#393536" d="M 1351.035156 528.738281 L 1074.546875 749.511719 C 1077.144531 752.777344 1079.742188 756.078125 1082.269531 759.460938 L 1358.957031 538.503906 C 1367.386719 544.535156 1379.113281 544.5 1387.589844 537.648438 C 1397.691406 529.410156 1399.230469 514.550781 1391.023438 504.386719 C 1382.8125 494.269531 1367.9375 492.710938 1357.769531 500.933594 C 1349.34375 507.785156 1346.898438 519.242188 1351.035156 528.738281 " fill-opacity="1" fill-rule="nonzero"/><path fill="#393536" d="M 1060.359375 569.507812 C 1059.152344 580.308594 1065.433594 590.207031 1075.050781 594.09375 L 1072.472656 616.707031 L 984.25 684.640625 C 989.394531 685.5625 994.46875 686.9375 999.460938 688.761719 L 1084.398438 623.238281 L 1087.546875 595.484375 C 1097.765625 593.878906 1106.128906 585.621094 1107.351562 574.851562 C 1108.824219 561.851562 1099.476562 550.144531 1086.527344 548.6875 C 1073.542969 547.230469 1061.832031 556.558594 1060.359375 569.507812 " fill-opacity="1" fill-rule="nonzero"/><path fill="#393536" d="M 1256.296875 541.972656 C 1263.417969 550.765625 1262.078125 563.695312 1253.300781 570.8125 C 1244.539062 577.914062 1231.570312 576.589844 1224.46875 567.816406 C 1217.347656 559.023438 1218.707031 546.109375 1227.484375 538.972656 C 1236.277344 531.855469 1249.179688 533.195312 1256.296875 541.972656 Z M 1216.207031 566.375 L 1035.449219 709.613281 C 1038.765625 712.226562 1042.015625 715.007812 1045.230469 717.921875 L 1224.148438 576.121094 C 1233.765625 583.457031 1247.46875 583.609375 1257.253906 575.6875 C 1268.730469 566.390625 1270.472656 549.472656 1261.171875 538.019531 C 1251.859375 526.542969 1234.972656 524.785156 1223.496094 534.082031 C 1213.730469 542.039062 1211.03125 555.488281 1216.207031 566.375 " fill-opacity="1" fill-rule="nonzero"/><path fill="#393536" d="M 1423.085938 547.261719 L 1108.808594 798.671875 C 1111.019531 802.289062 1113.214844 805.890625 1115.359375 809.523438 L 1431.011719 557.0625 C 1439.472656 563.074219 1451.164062 563.042969 1459.625 556.175781 C 1469.792969 547.96875 1471.335938 533.09375 1463.078125 522.910156 C 1454.867188 512.792969 1439.972656 511.253906 1429.820312 519.460938 C 1421.378906 526.292969 1418.933594 537.765625 1423.085938 547.261719 " fill-opacity="1" fill-rule="nonzero"/><path fill="#393536" d="M 1160.40625 894.761719 C 1162.398438 898.800781 1164.277344 902.632812 1166.085938 906.253906 L 1273.066406 823.125 L 1295.734375 825.285156 C 1297.527344 835.519531 1305.902344 843.675781 1316.742188 844.714844 C 1329.757812 845.953125 1341.285156 836.40625 1342.539062 823.410156 C 1343.746094 810.445312 1334.230469 798.90625 1321.230469 797.683594 C 1310.410156 796.628906 1300.609375 803.109375 1296.890625 812.773438 L 1269.148438 810.144531 L 1160.40625 894.761719 " fill-opacity="1" fill-rule="nonzero"/><path fill="#393536" d="M 1428.230469 622.921875 C 1435.351562 631.714844 1433.992188 644.628906 1425.230469 651.730469 C 1416.421875 658.882812 1403.519531 657.523438 1396.402344 648.746094 C 1389.265625 639.953125 1390.621094 627.039062 1399.367188 619.9375 C 1408.160156 612.820312 1421.09375 614.144531 1428.230469 622.921875 Z M 1388.140625 647.339844 L 1136.632812 847.730469 C 1138.675781 851.566406 1140.65625 855.367188 1142.582031 859.101562 L 1396.03125 657.089844 C 1405.664062 664.425781 1419.402344 664.574219 1429.152344 656.601562 C 1440.644531 647.324219 1442.386719 630.40625 1433.105469 618.949219 C 1423.808594 607.511719 1406.90625 605.734375 1395.460938 615.03125 C 1385.644531 622.96875 1382.964844 636.421875 1388.140625 647.339844 " fill-opacity="1" fill-rule="nonzero"/><path fill="#393536" d="M 911.644531 348.464844 C 901.109375 353.222656 888.695312 348.5 883.9375 337.980469 C 879.195312 327.445312 883.902344 315.015625 894.441406 310.277344 C 904.960938 305.535156 917.375 310.242188 922.117188 320.796875 C 926.890625 331.3125 922.183594 343.726562 911.644531 348.464844 Z M 850.800781 155.363281 C 847.082031 142.53125 833.679688 135.179688 820.878906 138.863281 C 808.0625 142.582031 800.675781 155.933594 804.378906 168.746094 C 807.460938 179.429688 817.277344 186.332031 827.882812 186.199219 L 851.90625 269.273438 L 779.113281 359.351562 L 826.074219 468.023438 L 746.363281 570.460938 L 781.527344 677.640625 L 942.703125 677.722656 L 1021.460938 576.472656 L 919.855469 350.929688 C 929.570312 343.339844 933.257812 329.855469 927.996094 318.132812 C 928.550781 319.371094 929.101562 320.578125 929.453125 321.347656 C 929.152344 320.730469 928.714844 319.742188 927.996094 318.132812 C 926.890625 315.671875 926.371094 314.546875 926.238281 314.246094 C 926.421875 314.648438 927.207031 316.375 927.996094 318.132812 C 921.78125 304.363281 905.53125 298.21875 891.808594 304.414062 C 878.023438 310.613281 871.890625 326.875 878.074219 340.625 C 883.398438 352.367188 896.03125 358.546875 908.160156 356.238281 L 1006.550781 574.699219 L 936.40625 664.878906 L 790.84375 664.808594 L 760.738281 572.957031 L 840.898438 469.882812 L 793.992188 361.394531 L 811.75 339.371094 L 874.875 465.660156 L 786.703125 579.039062 L 814.113281 636.21875 L 920.84375 636.101562 L 967.597656 575.703125 L 953.761719 543.695312 C 962.019531 537.046875 965.238281 525.523438 960.847656 515.289062 C 955.585938 503.0625 941.347656 497.449219 929.101562 502.695312 C 916.839844 507.988281 911.210938 522.191406 916.488281 534.449219 C 920.875 544.667969 931.480469 550.226562 941.984375 548.769531 L 952.789062 573.828125 L 914.828125 622.902344 L 822.402344 623.824219 L 801.699219 580.628906 L 890 467.167969 L 820.613281 328.398438 L 866.128906 272.121094 L 840.210938 182.613281 C 849.257812 177.070312 853.882812 166.015625 850.800781 155.363281 " fill-opacity="1" fill-rule="nonzero"/><path fill="#393536" d="M 480.164062 485.292969 C 475.253906 496.277344 462.355469 501.269531 451.347656 496.394531 C 440.359375 491.523438 435.367188 478.589844 440.242188 467.605469 C 445.117188 456.597656 458.050781 451.625 469.054688 456.53125 C 480.0625 461.390625 485.039062 474.304688 480.164062 485.292969 Z M 298.664062 377.609375 C 286.886719 370.238281 271.359375 373.824219 263.96875 385.582031 C 256.617188 397.390625 260.152344 412.867188 271.945312 420.253906 C 281.761719 426.398438 294.175781 424.941406 302.300781 417.488281 L 378.742188 465.308594 L 384.789062 585.835938 L 496.816406 637.59375 L 506.128906 772.542969 L 607.917969 831.332031 L 733.128906 719.398438 L 723.933594 586.054688 L 488.238281 481.503906 C 490.515625 468.84375 484 455.8125 471.753906 450.367188 C 473.058594 450.972656 474.316406 451.492188 475.136719 451.859375 C 474.484375 451.574219 473.445312 451.105469 471.753906 450.367188 C 469.191406 449.230469 468.019531 448.726562 467.699219 448.59375 C 468.117188 448.761719 469.945312 449.546875 471.753906 450.367188 C 457.378906 443.988281 440.492188 450.519531 434.128906 464.875 C 427.726562 479.246094 434.277344 496.144531 448.636719 502.527344 C 460.929688 507.953125 475.039062 503.964844 482.878906 493.75 L 711.117188 595.03125 L 719.339844 713.820312 L 606.226562 814.882812 L 518.996094 764.484375 L 509.613281 628.734375 L 397.773438 577.078125 L 396.28125 547.632812 L 533.070312 601.867188 L 543.386719 751.171875 L 604.417969 776.546875 L 687.210938 702.261719 L 681.582031 622.886719 L 648.5625 607.644531 C 650.371094 596.742188 644.84375 585.550781 634.320312 580.644531 C 621.742188 574.816406 606.78125 580.34375 600.898438 592.9375 C 595.085938 605.566406 600.566406 620.523438 613.195312 626.355469 C 623.699219 631.246094 635.828125 628.195312 642.949219 619.773438 L 668.75 631.714844 L 673.390625 696.199219 L 602.257812 761.136719 L 556.152344 741.976562 L 545.851562 592.503906 L 395.527344 532.941406 L 391.742188 457.636719 L 309.402344 406.117188 C 312.570312 395.546875 308.480469 383.757812 298.664062 377.609375 " fill-opacity="1" fill-rule="nonzero"/><path fill="#393536" d="M 1324.714844 1400.644531 C 1328.46875 1389.238281 1340.816406 1382.957031 1352.257812 1386.707031 C 1363.699219 1390.476562 1369.949219 1402.820312 1366.195312 1414.242188 C 1362.441406 1425.683594 1350.097656 1431.914062 1338.636719 1428.160156 C 1327.195312 1424.425781 1320.964844 1412.066406 1324.714844 1400.644531 Z M 1516.066406 1489.632812 C 1528.527344 1495.777344 1543.640625 1490.671875 1549.789062 1478.210938 C 1555.953125 1465.746094 1550.859375 1450.691406 1538.394531 1444.507812 C 1527.992188 1439.382812 1515.8125 1442.097656 1508.441406 1450.320312 L 1427.644531 1410.375 L 1409.550781 1291.070312 L 1292.902344 1250.769531 L 1270.136719 1117.445312 L 1162.96875 1069.121094 L 1049.554688 1193.019531 L 1072.085938 1324.800781 L 1317.058594 1405.214844 C 1316.054688 1418.046875 1323.84375 1430.355469 1336.542969 1434.542969 C 1335.203125 1434.089844 1333.894531 1433.6875 1333.058594 1433.40625 C 1333.710938 1433.605469 1334.800781 1433.992188 1336.542969 1434.542969 C 1339.222656 1435.429688 1340.445312 1435.816406 1340.78125 1435.917969 C 1340.347656 1435.78125 1338.4375 1435.195312 1336.542969 1434.542969 C 1351.519531 1439.449219 1367.652344 1431.277344 1372.542969 1416.355469 C 1377.46875 1401.398438 1369.277344 1385.265625 1354.351562 1380.324219 C 1341.550781 1376.171875 1327.914062 1381.53125 1321.164062 1392.503906 L 1083.914062 1314.566406 L 1063.859375 1197.207031 L 1166.269531 1085.320312 L 1258.105469 1126.742188 L 1281.058594 1260.851562 L 1397.488281 1301.085938 L 1401.929688 1330.230469 L 1260.402344 1289.964844 L 1235.191406 1142.453125 L 1171.929688 1123.308594 L 1096.945312 1205.480469 L 1110.53125 1283.898438 L 1144.894531 1295.773438 C 1144.207031 1306.796875 1150.804688 1317.363281 1161.761719 1321.183594 C 1174.878906 1325.722656 1189.203125 1318.738281 1193.777344 1305.625 C 1198.332031 1292.476562 1191.382812 1278.136719 1178.214844 1273.597656 C 1167.273438 1269.796875 1155.515625 1274.019531 1149.265625 1283.128906 L 1122.410156 1273.832031 L 1111.335938 1210.136719 L 1175.632812 1138.398438 L 1223.414062 1152.851562 L 1248.609375 1300.53125 L 1404.15625 1344.75 L 1415.464844 1419.320312 L 1502.527344 1462.3125 C 1500.433594 1473.167969 1505.695312 1484.507812 1516.066406 1489.632812 " fill-opacity="1" fill-rule="nonzero"/><path fill="#393536" d="M 444.378906 1419.503906 C 433.441406 1423.1875 421.5625 1417.292969 417.859375 1406.335938 C 414.15625 1395.417969 420.089844 1383.507812 431.042969 1379.824219 C 441.984375 1376.15625 453.878906 1382.050781 457.5625 1392.988281 C 461.265625 1403.925781 455.351562 1415.835938 444.378906 1419.503906 Z M 287.375 1453.421875 L 370.617188 1411.546875 L 380.953125 1339.910156 L 529.886719 1296.410156 L 553.054688 1154.542969 L 598.824219 1140.339844 L 660.992188 1208.730469 L 650.804688 1269.914062 L 625.109375 1279.042969 C 619.027344 1270.351562 607.71875 1266.363281 597.25 1270.082031 C 584.667969 1274.535156 578.082031 1288.320312 582.539062 1300.917969 C 587.027344 1313.480469 600.816406 1320.09375 613.363281 1315.625 C 623.867188 1311.886719 630.132812 1301.703125 629.394531 1291.117188 L 662.265625 1279.496094 L 674.761719 1204.15625 L 602.273438 1125.804688 L 541.695312 1144.628906 L 518.492188 1286.363281 L 382.980469 1325.957031 L 387.035156 1297.953125 L 498.492188 1258.558594 L 519.582031 1129.722656 L 607.433594 1089.339844 L 706.457031 1196 L 688.015625 1308.738281 L 460.914062 1385.148438 C 454.332031 1374.699219 441.230469 1369.640625 428.984375 1373.726562 C 414.695312 1378.535156 406.953125 1394.109375 411.777344 1408.414062 C 416.585938 1422.683594 432.117188 1430.421875 446.421875 1425.617188 C 444.632812 1426.234375 442.820312 1426.839844 442.402344 1426.957031 C 442.722656 1426.871094 443.878906 1426.488281 446.421875 1425.617188 C 448.097656 1425.0625 449.136719 1424.710938 449.792969 1424.492188 C 448.96875 1424.761719 447.714844 1425.179688 446.421875 1425.617188 C 458.621094 1421.511719 465.992188 1409.636719 464.96875 1397.34375 L 699.472656 1318.453125 L 720.164062 1191.878906 L 610.5 1073.761719 L 507.972656 1120.878906 L 487.050781 1248.976562 L 375.425781 1288.4375 L 358.875 1403.039062 L 281.59375 1441.945312 C 274.492188 1434.089844 262.765625 1431.59375 252.847656 1436.585938 C 240.902344 1442.582031 236.109375 1457.070312 242.140625 1468.996094 C 248.121094 1480.871094 262.628906 1485.695312 274.574219 1479.714844 C 284.492188 1474.726562 289.453125 1463.804688 287.375 1453.421875 " fill-opacity="1" fill-rule="nonzero"/><path fill="#393536" d="M 883.902344 683.085938 C 730.816406 683.085938 606.3125 807.597656 606.3125 960.636719 C 606.3125 1113.691406 730.816406 1238.191406 883.902344 1238.191406 C 1036.988281 1238.191406 1161.527344 1113.691406 1161.527344 960.636719 C 1161.527344 807.597656 1036.988281 683.085938 883.902344 683.085938 Z M 883.902344 1260.484375 C 718.539062 1260.484375 583.996094 1125.96875 583.996094 960.636719 C 583.996094 795.304688 718.539062 660.789062 883.902344 660.789062 C 1049.285156 660.789062 1183.808594 795.304688 1183.808594 960.636719 C 1183.808594 1125.96875 1049.285156 1260.484375 883.902344 1260.484375 " fill-opacity="1" fill-rule="nonzero"/></svg>